<mxfile host="app.diagrams.net" modified="2024-06-07T06:48:08.092Z" agent="Mozilla/5.0 (Windows NT 10.0; Win64; x64) AppleWebKit/537.36 (KHTML, like Gecko) Chrome/125.0.0.0 Safari/537.36" etag="CgmgxkzBnwEIpOqyjWze" version="24.5.1" type="device">
  <diagram name="Страница — 1" id="U7_gKWOzxVKBjN5RskKw">
    <mxGraphModel dx="1687" dy="878" grid="1" gridSize="10" guides="1" tooltips="1" connect="1" arrows="1" fold="1" page="1" pageScale="1" pageWidth="827" pageHeight="1169" math="0" shadow="0">
      <root>
        <mxCell id="0" />
        <mxCell id="1" parent="0" />
        <mxCell id="bthGJ5nt006aAWhflCpb-1" value="" style="ellipse;whiteSpace=wrap;html=1;" vertex="1" parent="1">
          <mxGeometry x="430" y="205" width="90" height="30" as="geometry" />
        </mxCell>
        <mxCell id="bthGJ5nt006aAWhflCpb-18" style="edgeStyle=orthogonalEdgeStyle;rounded=0;orthogonalLoop=1;jettySize=auto;html=1;entryX=0;entryY=0.5;entryDx=0;entryDy=0;" edge="1" parent="1" source="bthGJ5nt006aAWhflCpb-2" target="bthGJ5nt006aAWhflCpb-1">
          <mxGeometry relative="1" as="geometry">
            <mxPoint x="310" y="220" as="targetPoint" />
            <mxPoint x="280" y="220" as="sourcePoint" />
          </mxGeometry>
        </mxCell>
        <mxCell id="bthGJ5nt006aAWhflCpb-38" style="rounded=0;orthogonalLoop=1;jettySize=auto;html=1;" edge="1" parent="1" source="bthGJ5nt006aAWhflCpb-2" target="bthGJ5nt006aAWhflCpb-42">
          <mxGeometry relative="1" as="geometry">
            <mxPoint x="330" y="250" as="targetPoint" />
          </mxGeometry>
        </mxCell>
        <mxCell id="bthGJ5nt006aAWhflCpb-2" value="user" style="shape=umlActor;verticalLabelPosition=bottom;verticalAlign=top;html=1;outlineConnect=0;" vertex="1" parent="1">
          <mxGeometry x="240" y="190" width="30" height="60" as="geometry" />
        </mxCell>
        <mxCell id="bthGJ5nt006aAWhflCpb-39" style="rounded=0;orthogonalLoop=1;jettySize=auto;html=1;entryX=0.115;entryY=0.911;entryDx=0;entryDy=0;entryPerimeter=0;" edge="1" parent="1" source="bthGJ5nt006aAWhflCpb-3" target="bthGJ5nt006aAWhflCpb-32">
          <mxGeometry relative="1" as="geometry">
            <mxPoint x="295" y="410" as="targetPoint" />
          </mxGeometry>
        </mxCell>
        <mxCell id="bthGJ5nt006aAWhflCpb-3" value="admin" style="shape=umlActor;verticalLabelPosition=bottom;verticalAlign=top;html=1;outlineConnect=0;" vertex="1" parent="1">
          <mxGeometry x="168.75" y="390" width="30" height="60" as="geometry" />
        </mxCell>
        <mxCell id="bthGJ5nt006aAWhflCpb-4" value="Регистрация" style="text;html=1;align=center;verticalAlign=middle;whiteSpace=wrap;rounded=0;" vertex="1" parent="1">
          <mxGeometry x="445" y="205" width="60" height="30" as="geometry" />
        </mxCell>
        <mxCell id="bthGJ5nt006aAWhflCpb-6" value="" style="ellipse;whiteSpace=wrap;html=1;" vertex="1" parent="1">
          <mxGeometry x="430" y="160" width="70" height="30" as="geometry" />
        </mxCell>
        <mxCell id="bthGJ5nt006aAWhflCpb-14" style="rounded=0;orthogonalLoop=1;jettySize=auto;html=1;" edge="1" parent="1" source="bthGJ5nt006aAWhflCpb-7" target="bthGJ5nt006aAWhflCpb-4">
          <mxGeometry relative="1" as="geometry" />
        </mxCell>
        <mxCell id="bthGJ5nt006aAWhflCpb-7" value="Имя" style="text;html=1;align=center;verticalAlign=middle;whiteSpace=wrap;rounded=0;" vertex="1" parent="1">
          <mxGeometry x="432.5" y="160" width="65" height="30" as="geometry" />
        </mxCell>
        <mxCell id="bthGJ5nt006aAWhflCpb-8" value="" style="ellipse;whiteSpace=wrap;html=1;" vertex="1" parent="1">
          <mxGeometry x="550" y="220" width="90" height="30" as="geometry" />
        </mxCell>
        <mxCell id="bthGJ5nt006aAWhflCpb-16" style="rounded=0;orthogonalLoop=1;jettySize=auto;html=1;" edge="1" parent="1" source="bthGJ5nt006aAWhflCpb-9">
          <mxGeometry relative="1" as="geometry">
            <mxPoint x="520" y="220" as="targetPoint" />
          </mxGeometry>
        </mxCell>
        <mxCell id="bthGJ5nt006aAWhflCpb-9" value="Пароль" style="text;html=1;align=center;verticalAlign=middle;whiteSpace=wrap;rounded=0;" vertex="1" parent="1">
          <mxGeometry x="557.5" y="220" width="67.5" height="30" as="geometry" />
        </mxCell>
        <mxCell id="bthGJ5nt006aAWhflCpb-10" value="" style="ellipse;whiteSpace=wrap;html=1;" vertex="1" parent="1">
          <mxGeometry x="523.75" y="160" width="90" height="30" as="geometry" />
        </mxCell>
        <mxCell id="bthGJ5nt006aAWhflCpb-15" style="rounded=0;orthogonalLoop=1;jettySize=auto;html=1;entryX=0.879;entryY=0.183;entryDx=0;entryDy=0;entryPerimeter=0;" edge="1" parent="1" source="bthGJ5nt006aAWhflCpb-11" target="bthGJ5nt006aAWhflCpb-1">
          <mxGeometry relative="1" as="geometry">
            <mxPoint x="568.75" y="210" as="targetPoint" />
          </mxGeometry>
        </mxCell>
        <mxCell id="bthGJ5nt006aAWhflCpb-11" value="Логин" style="text;html=1;align=center;verticalAlign=middle;whiteSpace=wrap;rounded=0;" vertex="1" parent="1">
          <mxGeometry x="535" y="160" width="67.5" height="30" as="geometry" />
        </mxCell>
        <mxCell id="bthGJ5nt006aAWhflCpb-12" value="" style="ellipse;whiteSpace=wrap;html=1;" vertex="1" parent="1">
          <mxGeometry x="433.75" y="260" width="90" height="30" as="geometry" />
        </mxCell>
        <mxCell id="bthGJ5nt006aAWhflCpb-17" style="rounded=0;orthogonalLoop=1;jettySize=auto;html=1;entryX=0.5;entryY=1;entryDx=0;entryDy=0;" edge="1" parent="1" source="bthGJ5nt006aAWhflCpb-13" target="bthGJ5nt006aAWhflCpb-4">
          <mxGeometry relative="1" as="geometry">
            <mxPoint x="475" y="240" as="targetPoint" />
          </mxGeometry>
        </mxCell>
        <mxCell id="bthGJ5nt006aAWhflCpb-13" value="Email" style="text;html=1;align=center;verticalAlign=middle;whiteSpace=wrap;rounded=0;" vertex="1" parent="1">
          <mxGeometry x="441.25" y="260" width="67.5" height="30" as="geometry" />
        </mxCell>
        <mxCell id="bthGJ5nt006aAWhflCpb-19" value="" style="ellipse;whiteSpace=wrap;html=1;" vertex="1" parent="1">
          <mxGeometry x="213.75" y="95" width="90" height="30" as="geometry" />
        </mxCell>
        <mxCell id="bthGJ5nt006aAWhflCpb-20" value="&lt;div&gt;Авторизация&lt;/div&gt;" style="text;html=1;align=center;verticalAlign=middle;whiteSpace=wrap;rounded=0;" vertex="1" parent="1">
          <mxGeometry x="228.75" y="95" width="60" height="30" as="geometry" />
        </mxCell>
        <mxCell id="bthGJ5nt006aAWhflCpb-21" value="Логин" style="ellipse;whiteSpace=wrap;html=1;" vertex="1" parent="1">
          <mxGeometry x="190" y="50" width="93.75" height="30" as="geometry" />
        </mxCell>
        <mxCell id="bthGJ5nt006aAWhflCpb-22" style="rounded=0;orthogonalLoop=1;jettySize=auto;html=1;" edge="1" parent="1" target="bthGJ5nt006aAWhflCpb-20">
          <mxGeometry relative="1" as="geometry">
            <mxPoint x="252.08333333333337" y="80" as="sourcePoint" />
          </mxGeometry>
        </mxCell>
        <mxCell id="bthGJ5nt006aAWhflCpb-27" value="Пароль" style="ellipse;whiteSpace=wrap;html=1;" vertex="1" parent="1">
          <mxGeometry x="307.5" y="50" width="90" height="30" as="geometry" />
        </mxCell>
        <mxCell id="bthGJ5nt006aAWhflCpb-28" style="rounded=0;orthogonalLoop=1;jettySize=auto;html=1;entryX=0.879;entryY=0.183;entryDx=0;entryDy=0;entryPerimeter=0;" edge="1" parent="1" target="bthGJ5nt006aAWhflCpb-19">
          <mxGeometry relative="1" as="geometry">
            <mxPoint x="352.5" y="100" as="targetPoint" />
            <mxPoint x="327.29289940828414" y="80" as="sourcePoint" />
          </mxGeometry>
        </mxCell>
        <mxCell id="bthGJ5nt006aAWhflCpb-30" style="edgeStyle=orthogonalEdgeStyle;rounded=0;orthogonalLoop=1;jettySize=auto;html=1;entryX=0.449;entryY=1.011;entryDx=0;entryDy=0;entryPerimeter=0;" edge="1" parent="1" target="bthGJ5nt006aAWhflCpb-20">
          <mxGeometry relative="1" as="geometry">
            <mxPoint x="255" y="180" as="sourcePoint" />
          </mxGeometry>
        </mxCell>
        <mxCell id="bthGJ5nt006aAWhflCpb-67" style="rounded=0;orthogonalLoop=1;jettySize=auto;html=1;" edge="1" parent="1" source="bthGJ5nt006aAWhflCpb-32" target="bthGJ5nt006aAWhflCpb-54">
          <mxGeometry relative="1" as="geometry">
            <mxPoint x="270" y="360" as="targetPoint" />
          </mxGeometry>
        </mxCell>
        <mxCell id="bthGJ5nt006aAWhflCpb-68" style="edgeStyle=orthogonalEdgeStyle;rounded=0;orthogonalLoop=1;jettySize=auto;html=1;entryX=1;entryY=0.5;entryDx=0;entryDy=0;" edge="1" parent="1" source="bthGJ5nt006aAWhflCpb-32" target="bthGJ5nt006aAWhflCpb-58">
          <mxGeometry relative="1" as="geometry" />
        </mxCell>
        <mxCell id="bthGJ5nt006aAWhflCpb-32" value="" style="ellipse;whiteSpace=wrap;html=1;" vertex="1" parent="1">
          <mxGeometry x="305" y="350" width="90" height="30" as="geometry" />
        </mxCell>
        <mxCell id="bthGJ5nt006aAWhflCpb-64" style="rounded=0;orthogonalLoop=1;jettySize=auto;html=1;entryX=0.239;entryY=-0.099;entryDx=0;entryDy=0;entryPerimeter=0;" edge="1" parent="1" source="bthGJ5nt006aAWhflCpb-33" target="bthGJ5nt006aAWhflCpb-63">
          <mxGeometry relative="1" as="geometry">
            <mxPoint x="330" y="400" as="targetPoint" />
          </mxGeometry>
        </mxCell>
        <mxCell id="bthGJ5nt006aAWhflCpb-65" style="rounded=0;orthogonalLoop=1;jettySize=auto;html=1;entryX=0.75;entryY=0;entryDx=0;entryDy=0;" edge="1" parent="1" source="bthGJ5nt006aAWhflCpb-33" target="bthGJ5nt006aAWhflCpb-61">
          <mxGeometry relative="1" as="geometry">
            <mxPoint x="340" y="400" as="targetPoint" />
          </mxGeometry>
        </mxCell>
        <mxCell id="bthGJ5nt006aAWhflCpb-66" style="rounded=0;orthogonalLoop=1;jettySize=auto;html=1;entryX=0.746;entryY=0.925;entryDx=0;entryDy=0;entryPerimeter=0;" edge="1" parent="1" source="bthGJ5nt006aAWhflCpb-33" target="bthGJ5nt006aAWhflCpb-53">
          <mxGeometry relative="1" as="geometry">
            <mxPoint x="348.75" y="340" as="targetPoint" />
          </mxGeometry>
        </mxCell>
        <mxCell id="bthGJ5nt006aAWhflCpb-33" value="Заявка" style="text;html=1;align=center;verticalAlign=middle;whiteSpace=wrap;rounded=0;" vertex="1" parent="1">
          <mxGeometry x="318.75" y="350" width="60" height="30" as="geometry" />
        </mxCell>
        <mxCell id="bthGJ5nt006aAWhflCpb-50" style="rounded=0;orthogonalLoop=1;jettySize=auto;html=1;entryX=1;entryY=0.5;entryDx=0;entryDy=0;" edge="1" parent="1" source="bthGJ5nt006aAWhflCpb-42" target="bthGJ5nt006aAWhflCpb-32">
          <mxGeometry relative="1" as="geometry">
            <mxPoint x="405" y="365" as="targetPoint" />
          </mxGeometry>
        </mxCell>
        <mxCell id="bthGJ5nt006aAWhflCpb-42" value="" style="ellipse;whiteSpace=wrap;html=1;" vertex="1" parent="1">
          <mxGeometry x="433.75" y="350" width="90" height="30" as="geometry" />
        </mxCell>
        <mxCell id="bthGJ5nt006aAWhflCpb-43" value="Подать" style="text;html=1;align=center;verticalAlign=middle;whiteSpace=wrap;rounded=0;" vertex="1" parent="1">
          <mxGeometry x="446.25" y="350" width="67.5" height="30" as="geometry" />
        </mxCell>
        <mxCell id="bthGJ5nt006aAWhflCpb-44" value="" style="ellipse;whiteSpace=wrap;html=1;" vertex="1" parent="1">
          <mxGeometry x="330" y="410" width="90" height="30" as="geometry" />
        </mxCell>
        <mxCell id="bthGJ5nt006aAWhflCpb-48" style="rounded=0;orthogonalLoop=1;jettySize=auto;html=1;entryX=0.5;entryY=1;entryDx=0;entryDy=0;" edge="1" parent="1" source="bthGJ5nt006aAWhflCpb-45" target="bthGJ5nt006aAWhflCpb-33">
          <mxGeometry relative="1" as="geometry">
            <mxPoint x="375" y="390" as="targetPoint" />
          </mxGeometry>
        </mxCell>
        <mxCell id="bthGJ5nt006aAWhflCpb-45" value="Удалить" style="text;html=1;align=center;verticalAlign=middle;whiteSpace=wrap;rounded=0;" vertex="1" parent="1">
          <mxGeometry x="341.25" y="410" width="67.5" height="30" as="geometry" />
        </mxCell>
        <mxCell id="bthGJ5nt006aAWhflCpb-46" value="" style="ellipse;whiteSpace=wrap;html=1;" vertex="1" parent="1">
          <mxGeometry x="446.25" y="410" width="90" height="30" as="geometry" />
        </mxCell>
        <mxCell id="bthGJ5nt006aAWhflCpb-49" style="rounded=0;orthogonalLoop=1;jettySize=auto;html=1;entryX=1;entryY=1;entryDx=0;entryDy=0;exitX=0.135;exitY=0.079;exitDx=0;exitDy=0;exitPerimeter=0;" edge="1" parent="1" source="bthGJ5nt006aAWhflCpb-47" target="bthGJ5nt006aAWhflCpb-32">
          <mxGeometry relative="1" as="geometry">
            <mxPoint x="491.25" y="390" as="targetPoint" />
          </mxGeometry>
        </mxCell>
        <mxCell id="bthGJ5nt006aAWhflCpb-47" value="Изменить" style="text;html=1;align=center;verticalAlign=middle;whiteSpace=wrap;rounded=0;" vertex="1" parent="1">
          <mxGeometry x="457.5" y="410" width="67.5" height="30" as="geometry" />
        </mxCell>
        <mxCell id="bthGJ5nt006aAWhflCpb-52" value="" style="ellipse;whiteSpace=wrap;html=1;" vertex="1" parent="1">
          <mxGeometry x="258.75" y="300" width="90" height="30" as="geometry" />
        </mxCell>
        <mxCell id="bthGJ5nt006aAWhflCpb-53" value="ФИО" style="text;html=1;align=center;verticalAlign=middle;whiteSpace=wrap;rounded=0;" vertex="1" parent="1">
          <mxGeometry x="270" y="300" width="67.5" height="30" as="geometry" />
        </mxCell>
        <mxCell id="bthGJ5nt006aAWhflCpb-54" value="" style="ellipse;whiteSpace=wrap;html=1;" vertex="1" parent="1">
          <mxGeometry x="150" y="310" width="90" height="30" as="geometry" />
        </mxCell>
        <mxCell id="bthGJ5nt006aAWhflCpb-55" value="Категория&amp;nbsp;" style="text;html=1;align=center;verticalAlign=middle;whiteSpace=wrap;rounded=0;" vertex="1" parent="1">
          <mxGeometry x="161.25" y="310" width="67.5" height="30" as="geometry" />
        </mxCell>
        <mxCell id="bthGJ5nt006aAWhflCpb-58" value="" style="ellipse;whiteSpace=wrap;html=1;" vertex="1" parent="1">
          <mxGeometry x="78.75" y="350" width="90" height="30" as="geometry" />
        </mxCell>
        <mxCell id="bthGJ5nt006aAWhflCpb-59" value="Описание проблемы" style="text;html=1;align=center;verticalAlign=middle;whiteSpace=wrap;rounded=0;" vertex="1" parent="1">
          <mxGeometry x="90" y="350" width="67.5" height="30" as="geometry" />
        </mxCell>
        <mxCell id="bthGJ5nt006aAWhflCpb-60" value="" style="ellipse;whiteSpace=wrap;html=1;" vertex="1" parent="1">
          <mxGeometry x="210" y="420" width="90" height="30" as="geometry" />
        </mxCell>
        <mxCell id="bthGJ5nt006aAWhflCpb-61" value="Статус" style="text;html=1;align=center;verticalAlign=middle;whiteSpace=wrap;rounded=0;" vertex="1" parent="1">
          <mxGeometry x="221.25" y="420" width="67.5" height="30" as="geometry" />
        </mxCell>
        <mxCell id="bthGJ5nt006aAWhflCpb-62" value="" style="ellipse;whiteSpace=wrap;html=1;" vertex="1" parent="1">
          <mxGeometry x="277.5" y="460" width="90" height="30" as="geometry" />
        </mxCell>
        <mxCell id="bthGJ5nt006aAWhflCpb-63" value="Отдел" style="text;html=1;align=center;verticalAlign=middle;whiteSpace=wrap;rounded=0;" vertex="1" parent="1">
          <mxGeometry x="288.75" y="460" width="67.5" height="30" as="geometry" />
        </mxCell>
      </root>
    </mxGraphModel>
  </diagram>
</mxfile>
